<svg xmlns="http://www.w3.org/2000/svg" xmlns:xlink="http://www.w3.org/1999/xlink" viewBox="0 0 1856.94 340.64"><defs><style>.cls-1{mask:url(#mask);filter:url(#luminosity-noclip-2);}.cls-2{mix-blend-mode:multiply;fill:url(#Áåçûìÿííûé_ãðàäèåíò_8);}.cls-27,.cls-3{opacity:0.5;}.cls-4{fill:#94776f;}.cls-5{fill:#453433;}.cls-6{fill:#312783;}.cls-7{fill:#4134ad;}.cls-8{fill:#201a57;}.cls-9{fill:#f09c7d;}.cls-10{fill:#ffba94;}.cls-11{fill:#30b6f0;}.cls-12{fill:#258bb8;}.cls-13{fill:#fff;}.cls-14{fill:#3c3c3b;}.cls-15{fill:#533f3e;}.cls-16{fill:#1c88b8;}.cls-17{fill:#ff836b;}.cls-18{fill:#c8e8f8;}.cls-19{fill:#8c7e7b;}.cls-20{fill:#615350;}.cls-21{fill:#004680;}.cls-22{fill:url(#Áåçûìÿííûé_ãðàäèåíò_146);}.cls-23{fill:#fc8e74;}.cls-24{mask:url(#mask-2);}.cls-25{fill:url(#Áåçûìÿííûé_ãðàäèåíò_11);}.cls-26{fill:#735d5a;}.cls-27{fill:url(#Áåçûìÿííûé_ãðàäèåíò_10);}.cls-28{fill:url(#Áåçûìÿííûé_ãðàäèåíò_9);}.cls-29{fill:url(#Íîâûé_îáðàçåö_ãðàäèåíòà_16);}.cls-30{fill:#009fe3;}.cls-31{fill:url(#Áåçûìÿííûé_ãðàäèåíò_39);}.cls-32{fill:url(#Áåçûìÿííûé_ãðàäèåíò_9-2);}.cls-33{fill:url(#Áåçûìÿííûé_ãðàäèåíò_39-2);}.cls-34{fill:#d9cac4;}.cls-35{fill:#f2e7df;}.cls-36{fill:#b8a7a0;}.cls-37{fill:url(#Áåçûìÿííûé_ãðàäèåíò_7);}.cls-38{fill:#9d9d9c;}.cls-39{fill:#575756;}.cls-40{fill:#706f6f;}.cls-41{fill:#f6f6f6;}.cls-42{fill:#2fb2eb;}.cls-43{fill:none;stroke:#fa7f7e;stroke-miterlimit:10;stroke-width:0.36px;}.cls-44{fill:#4d3a9f;}.cls-45{fill:#fa7f7e;}.cls-46{fill:#ea6363;}.cls-47{fill:#5c55c4;}.cls-48{fill:#382690;}.cls-49{fill:#efeeed;}.cls-50{fill:#f2f2f2;}.cls-51{fill:#e6e6e6;}.cls-52{fill:#e2e2e2;}.cls-53{fill:#303c6d;}.cls-54{fill:#ff8a33;}.cls-55{fill:#d36d29;}.cls-56{fill:#ff9b50;}.cls-57{fill:#c1272d;}.cls-58{fill:#42210b;}.cls-59{fill:#fa7f7f;}.cls-60{fill:#1e2859;}.cls-61{fill:#2f54a4;}.cls-62{fill:#fec1b5;}.cls-63{fill:#e8988c;}.cls-64{fill:url(#Безымянный_градиент_28);}.cls-65{fill:url(#Безымянный_градиент_28-2);}.cls-66{fill:#fa9555;}.cls-67{filter:url(#luminosity-noclip);}</style><filter id="luminosity-noclip" x="173.81" y="-9078.46" width="90.34" height="32766" filterUnits="userSpaceOnUse" color-interpolation-filters="sRGB"><feFlood flood-color="#fff" result="bg"/><feBlend in="SourceGraphic" in2="bg"/></filter><mask id="mask" x="173.81" y="-9078.46" width="90.34" height="32766" maskUnits="userSpaceOnUse"><g class="cls-67"/></mask><linearGradient id="Áåçûìÿííûé_ãðàäèåíò_8" x1="91.55" y1="219.91" x2="211.84" y2="289.36" gradientTransform="translate(68.35)" gradientUnits="userSpaceOnUse"><stop offset="0"/><stop offset="0" stop-color="#fff"/><stop offset="0.99" stop-color="#fff"/></linearGradient><linearGradient id="Áåçûìÿííûé_ãðàäèåíò_146" x1="-27.49" y1="322.58" x2="33.67" y2="322.58" gradientTransform="matrix(1, 0, -0.03, 1, 245.33, -0.02)" gradientUnits="userSpaceOnUse"><stop offset="0" stop-color="#eb816f"/><stop offset="1" stop-color="#d45944"/></linearGradient><filter id="luminosity-noclip-2" x="173.81" y="213.89" width="90.34" height="100.75" filterUnits="userSpaceOnUse" color-interpolation-filters="sRGB"><feFlood flood-color="#fff" result="bg"/><feBlend in="SourceGraphic" in2="bg"/></filter><mask id="mask-2" x="173.81" y="213.89" width="90.34" height="100.75" maskUnits="userSpaceOnUse"><g class="cls-1"><path class="cls-2" d="M252.8,264.79c-1.21-6.15-1.6-12.71-3.55-18.69s-5.18-13.6-7-18C240.67,224.46,237,222,233,221c-6.06-1.53-13.16-2.29-19.28-3.72-11.25-2.63-21.86-4.2-33.54-2.83a.92.92,0,0,0-1.21.38c-4.77,8.37-9.35,20.16,1.64,28.68,7.79,6,42.2-3.35,44.26,8,4.21,23.36,19.1,30.3,21.47,44.34,1,5.7.31,13.34,1.94,16.07,1.9,3.2,4.86,3,8.41,2.37,4.18-.72,6.51-2.57,7.48-6.35C264.3,307.36,255.41,278.14,252.8,264.79Z"/></g></mask><linearGradient id="Áåçûìÿííûé_ãðàäèåíò_11" x1="91.55" y1="219.91" x2="211.84" y2="289.36" gradientTransform="translate(68.35)" gradientUnits="userSpaceOnUse"><stop offset="0" stop-color="#0071c4"/><stop offset="0" stop-color="#00427a"/><stop offset="0.99" stop-color="#0064b8"/></linearGradient><linearGradient id="Áåçûìÿííûé_ãðàäèåíò_10" x1="117.92" y1="175.3" x2="253.09" y2="175.3" gradientTransform="translate(68.35)" gradientUnits="userSpaceOnUse"><stop offset="0" stop-color="#dedede"/><stop offset="1" stop-color="#b2b2b2"/></linearGradient><linearGradient id="Áåçûìÿííûé_ãðàäèåíò_9" x1="166.09" y1="124.03" x2="166.09" y2="181.98" gradientTransform="translate(68.35)" gradientUnits="userSpaceOnUse"><stop offset="0" stop-color="#009fe3"/><stop offset="1" stop-color="#0064b8"/></linearGradient><linearGradient id="Íîâûé_îáðàçåö_ãðàäèåíòà_16" x1="146.08" y1="58.2" x2="146.08" y2="129.18" gradientTransform="translate(68.35)" gradientUnits="userSpaceOnUse"><stop offset="0" stop-color="#f2a178"/><stop offset="1" stop-color="#ffd5af"/></linearGradient><linearGradient id="Áåçûìÿííûé_ãðàäèåíò_39" x1="124.97" y1="128.35" x2="149.28" y2="128.35" gradientTransform="translate(68.35)" gradientUnits="userSpaceOnUse"><stop offset="0" stop-color="#ffd5af"/><stop offset="1" stop-color="#f2a178"/></linearGradient><linearGradient id="Áåçûìÿííûé_ãðàäèåíò_9-2" x1="117.91" y1="121.07" x2="117.91" y2="234.94" xlink:href="#Áåçûìÿííûé_ãðàäèåíò_9"/><linearGradient id="Áåçûìÿííûé_ãðàäèåíò_39-2" x1="113.07" y1="206.21" x2="172.48" y2="206.21" xlink:href="#Áåçûìÿííûé_ãðàäèåíò_39"/><linearGradient id="Áåçûìÿííûé_ãðàäèåíò_7" x1="328.89" y1="312.75" x2="477.46" y2="312.75" gradientUnits="userSpaceOnUse"><stop offset="0" stop-color="#7cafe0"/><stop offset="0.24" stop-color="#96c8eb"/><stop offset="0.5" stop-color="#aadbf3"/><stop offset="0.75" stop-color="#b7e7f8"/><stop offset="1" stop-color="#bbebfa"/></linearGradient><linearGradient id="Безымянный_градиент_28" x1="1396.46" y1="330.15" x2="1416.19" y2="259.72" gradientUnits="userSpaceOnUse"><stop offset="0" stop-color="#ec7b35"/><stop offset="1" stop-color="#fa9555"/></linearGradient><linearGradient id="Безымянный_градиент_28-2" x1="1301.37" y1="202.62" x2="1301.37" y2="152.2" xlink:href="#Безымянный_градиент_28"/></defs><g id="Layer_2" data-name="Layer 2"><g id="Layer_1-2" data-name="Layer 1"><g class="cls-3"><path class="cls-4" d="M1705.14,337.22c1.47,1.2,4.93,1.07,9.43,1.07a39,39,0,0,0,11.12-1.32c2.84-.85,5.27-2.81,7.75-4.34,5.54-3.44,11.47-6.43,16.32-10.87,1.27-1.16,5-4.2,4.72-5.59-.31-1.81-3.74-5.07-4.89-6.44-2.08-2.49-4.51-4.63-6.61-7.09a19.69,19.69,0,0,1-3.07-5.19c-.38-.89-.57-2.59-1.29-3.17-2.29-1.85-6.38,2-8.07,3.2-2.33,1.66-5.8,3-7.35,5.31-2.89,4.32-2.57,11.13-3.93,16a19.61,19.61,0,0,1-3.87,7.77c-2.41,2.79-5.48,2.83-8.48,4.71C1704.67,332.7,1703,335.47,1705.14,337.22Z"/><path class="cls-5" d="M1602.33,334.25c7.1,1.21,10.43,2.26,22.59,2.26h12.83c2.64,0,4.79-1.13,5.34-2.88,1.08-3.42,0-6.9-.5-8.88a35.9,35.9,0,0,1-1.38-9c0-2.69.77-5.8-1.27-7.86a12.14,12.14,0,0,0-8.84-2.91c-5.63.65-10.16,5.89-14.38,9.07-5.16,3.87-11.14,6.11-17.41,7.76-4.29,1.13-11.2,1.14-11.21,6.95C1588.1,331.46,1599.66,333.79,1602.33,334.25Z"/><path class="cls-6" d="M1641.43,312.59c4.47-1.59,3.55-10.75,4.31-14.46,1.49-7.33,3.71-12.73,6.34-19.7,2.36-6.24,5.12-12.5,5.89-19.19.73-6.27-.89-12.49-.7-18.76.38-12.55,6.67-23.33,10.8-34.84,2.13-5.92-.45-10.42-2.64-15.93s-2.51-11.35-4-17c-1.35-5.2-4.17-9.63-9.32-11.74-3.49-1.44-8.41-2.35-11,1-3.38,4.32-4.49,12.72-5.22,18-.88,6.39-.52,13-.77,19.43a205.75,205.75,0,0,1-1.71,21.9c-.82,5.62-2,11.11-.22,16.67,1.93,6.16,1.75,9.58.37,16-1.3,6-2.15,12.09-3,18.14-1,7.17-1.5,13.69-3.24,20.72-1.11,4.47-5.45,10.81-4.55,15.08C1623.38,310.69,1639.15,313.4,1641.43,312.59Z"/><path class="cls-7" d="M1644,172.81c.94,3.75,3.57,5.79,6.07,8.48s3.16,5.53,4.35,8.74c1.69,4.53,12.46,31.26,16.13,40.09a22.8,22.8,0,0,0,6.77,9.44c2.68,2.35,4.15,6.38,6.5,9.16,5.2,6.12,24.47,32.22,28.25,39.63a104.79,104.79,0,0,1,5.15,11.32c.8,2.18,1.13,5.57,3,7.2,3.67,3.24,12.68-2.48,15.56-5,1.92-1.69,5.08-4.86,5.48-7.53.45-3.07-2.69-5.76-4.55-7.82a75.86,75.86,0,0,1-13.07-19.59c-3.06-6.83-4.46-14-8.11-20.65-3.57-6.47-8.71-11.41-13.19-17.19-10.15-13.11-6.54-29.77-10.63-44.84-1.23-4.55.59-6.49,2.31-10.67.77-1.85,4.09-12.71,2-20.34-2.85-10.36-9.8-18.54-21-14-6.45,2.63-13.24,6.67-19.18,10.3-2.36,1.44-11.53,5.8-11.41,9.06C1644.6,163.31,1642.83,168.11,1644,172.81Z"/><path class="cls-8" d="M1650.44,159.5c.13,2.52,1.24,6,3.47,7.47s5.34.93,7.89.48a93,93,0,0,0,11.14-2.78c1-.31,1.46,1.29.44,1.6-5.19,1.59-12.17,4.34-17.71,3.09-4.55-1-6.67-5.47-6.88-9.86C1648.73,158.44,1650.39,158.44,1650.44,159.5Z"/><path class="cls-9" d="M1612.44,111.72c3.53,3.33,3.08,8.13,8.72,9.37,5.21,1.15,9-2.68,13.93-3,3.68-.27,8.59,4.76,10-.34,1.15-4.23-2.3-6.4-5.91-7.46-4.69-1.37-8.88-1.48-13.3-3.81s-7.63-2.12-12.65-1.57c-1.92.21-9.14.11-9.87,2.69C1602.86,109.19,1611.24,110.59,1612.44,111.72Z"/><path class="cls-10" d="M1621.89,35.86c1.55,2.13,2.7,2.58,4.31,4.08,1.91,1.8,2.21,5,2.85,7.51.76,3,3.06,1.12,5.15,2.08,2.44,1.13,4.48,4.26,7.18,5.2,3,1.05,4.22-2.24,7-2,2.34.18,4.08,4.26,5.85,5.54,2.68,1.95,3.91,1.94,6.18-.16a21.78,21.78,0,0,0,5.48-7.38c2.44-5.72.77-9.74-2.94-14.18-8.16-9.77-.4-23.16-13.93-30.71C1639.5.52,1623.89,9,1620.08,18.7,1617.24,25.91,1617.78,30.2,1621.89,35.86Z"/><path class="cls-5" d="M1612.54,28.57c1,1.74,3.65,5.28,5.49,5,4.53-.57,3.54-15,11.16-10.8,2.68,1.48,5.86,6.12,9.2,5.24,2.22-.58,1.6-2.72,3.13-4.36a3.74,3.74,0,0,1,6.24,1.16c1.42,4.34.84,5.79,4.13,6.38,2.08.37,7.16-.53,8.27-2.61s-.06-8.47-.29-10.77c-.71-7.34-4.78-12.74-11.59-16.25-5.44-2.81-14.8-1.85-20.65,2.41-7.82,5.69-8.24,11.38-13.52,16.43C1611.2,23.23,1611.19,26.28,1612.54,28.57Z"/><path class="cls-11" d="M1651.41,56.58c.36,1.82-.13,4.43.47,6.08,1.21,3.33,5.49-.21,7.14-2.26,2.17-2.71,3.11-6.19,5.72-8.58,2-1.82,4.53-2.8,6.78-4.2s4.37-3,4.58-5.72c.33-4.22-2.83-4.24-6.17-3.78-4.33.58-7.67,3-11.16,5.41-1.51,1-9.09,4.87-8.89,6.77C1650.11,52.45,1651,54.47,1651.41,56.58Z"/><path class="cls-12" d="M1640.32,162.77c4.6,1.7,12.67-1.14,16.82-3.05,8.32-3.81,18.21-15.61,28.27-10.54,2.51,1.26,13.18,14.26,12.65,4.94-.29-5.18-2.54-10.47-4.28-15.27a33.7,33.7,0,0,1-1.7-16.38c1.71-13.29,4.62-25.8,3.14-39.31-1.06-9.63-2.82-22.47-8.63-30.58-6.61-9.22-18.44-10.6-27.12-3.28-8.29,7-9.93,21.12-12.33,31-3,12.35-2.14,24.74-4.2,37.18-1,6.12-2.87,12.55-1.94,18.79.39,2.57,1.62,5,1.74,7.57.12,2.86-1,5.48-2,8.09C1639.43,155.28,1635,160.83,1640.32,162.77Z"/><path class="cls-8" d="M1658.62,90.56c.52,1.12,5.35,8.22,5,4.26,0-.56-2.4-2.7-2.69-3.36-.78-1.75-.58-3.82-.73-5.68-.89-11.6-6.09-30.59,9.56-35.14a13.07,13.07,0,0,1,7.76.5c2.83.91,6.38,5.12,8.78,6.58,1.17.71,2.21,0,1.71-1.64-.64-2.11-4.81-5.85-7.32-7.37a16.16,16.16,0,0,0-16.79.54c-5.77,3.86-8.26,11.57-9.63,18C1652.59,75.18,1655.35,83.48,1658.62,90.56Z"/><path class="cls-6" d="M1691.36,144.43a49,49,0,0,0,26.25-3.64,28.69,28.69,0,0,0,5.9-2.92c1.59-1.19,1.26-1.26,2-2.75,1.7-3.26,4.07-7.05,4.08-10.83,0-4-2.27-7.84-2.95-11.75a101.94,101.94,0,0,0-2.48-12c-1.36-4.54-1.39-9.08-2.42-13.64-.89-3.92-3.2-7.11-5.46-10.37-4.63-6.7-9.69-13.44-16.06-18.63-3.8-3.09-11.29-5.45-15.13-1.12-4.74,5.33-3.39,17.41-3.55,23.95a86.06,86.06,0,0,1-4.44,26.78c-3,8.47-8.46,16.59-8.2,25.65C1669.12,140.08,1687.21,143.81,1691.36,144.43Z"/><path class="cls-12" d="M1716.62,139.63c3.32-.56,8-1.09,11-2.77,2-1.14,2.42-2.94,3-5.44,1.43-6.1.7-12.47.42-18.65-.09-2.13.94-7.11,0-8.79-1.2-2-5.48-2.53-7.7-2.89a40.55,40.55,0,0,0-16.74.59c-5.15,1.4-8.32,3.48-9.53,8.8-1.54,6.78-4.08,13.69-4.78,20.61C1690.93,143.75,1709.14,140.88,1716.62,139.63Z"/><path class="cls-8" d="M1686.79,94.06c3.44-8.18,7.62-21.23,17.81-22.83a.79.79,0,0,1,.22,0,.93.93,0,0,1,.44,0c1.81.45,2.44,1.84,3,3.53,1.15,3.2,1.35,6.26,5.24,7.36,2,.56,3.76.44,5.48,1.73a8.14,8.14,0,0,1,2.73,3.85c.41,1.11-1.35,1.58-1.76.49-1.86-4.94-6.6-3-9.94-5.59a7.89,7.89,0,0,1-2.18-3.21c-.66-1.54-1.18-5.77-3-6.36-9.29,1.65-13.14,14-16.31,21.51C1688.1,95.62,1686.33,95.15,1686.79,94.06Z"/><path class="cls-13" d="M1699.06,110.34a8.61,8.61,0,0,1,4.41,1.11c2.39,1.18,2.82,1.19,5.26.91s4.65-.47,6.94-.91c5.56-1.07,10.38-4.41,16.13-4.56a.91.91,0,0,1,0,1.82c-6.29.17-11.85,4-18.1,4.88-2.22.3-5.84,1.3-8,1-2.42-.38-3.76-2.38-6.59-2.38A.92.92,0,0,1,1699.06,110.34Z"/><rect class="cls-14" x="1597.34" y="105.77" width="30.49" height="3.65" transform="translate(3071.45 803.1) rotate(-158.33)"/><path class="cls-10" d="M1608.65,111.78c2.07-.27,3-1.55,4.89-.32,1.27.82,2.06,2.76,3.18,3.82a11.6,11.6,0,0,0,4.78,2.69c4.34,1.06,7.62.49,10-1.5,3-2.52,5.44-1.28,9.28,0s7.8,3.3,12,4a52.51,52.51,0,0,0,13.72.12c3.52-.33,7.89.07,9.91-3,1.63-2.51,4.07-6.65,3.74-9.78-.36-3.3-3.26-4.44-6.11-5.3-3.27-1-7.56-2.63-10.82-2.85-3.84-.25-7.77,2-11.18,3.46A21.54,21.54,0,0,1,1641.4,105a48.34,48.34,0,0,1-6.71-.22c-2.08-.38-2.79-1.12-4.86-2-5.53-2.42-6.29-2.11-10,.45a18.86,18.86,0,0,1-7,3.15c-1.7.42-7.42,2.44-8.2,4C1603.55,112.53,1608.18,111.85,1608.65,111.78Z"/><path class="cls-11" d="M1660.11,95c-.58,3.23-1.18,5.36.87,8.14,3.45,4.68,9.54,6.83,15.18,7.08,4.22.18,4.43-.57,5.88-4.42a43.68,43.68,0,0,0,3-11.46c.35-3.86-.23-7.72.31-11.58.45-3.24,1.29-6.38,1.6-9.64.45-4.73.52-9.87-1.15-14.39-2-5.43-6-7.39-11.32-8.69-7.28-1.78-11.68,3.3-13.9,9.77-2.62,7.64,0,14.28.78,21.93C1661.75,86.21,1660.88,90.6,1660.11,95Z"/><path class="cls-10" d="M1823,301.58c3.35,4.51,5.79,9.36,8.72,14.13a33.85,33.85,0,0,1,3.69,8.89c.5,1.74.57,3.55,2.69,3.17,5.4-1,4.09-10.5,3.59-13.88-1.41-9.51,7.36-24.06-7.12-25.32-2.65-.23-4.64-.74-6.63-2.57-1.29-1.19-2.44-4-4-4.69-3.7-1.74-7.59,2.45-7.83,5.91C1815.73,292.65,1820,297.49,1823,301.58Z"/><path class="cls-15" d="M1828,335.28c1.13.74,4.43-.86,5.45-1.29,4-1.67,8.2-4.79,10.33-8.71,2.4-4.4,1.38-9.54.53-14.2-.94-5.11-.09-8.81,1.39-13.74,1.7.51,10,7.82,11.22,6.06.61-.86-5.88-6.73-6.59-7.51-2.37-2.62-4.68-6.6-8.21-7.67-2.11-.63-6.9-1.25-7.79.95-.72,1.76.39,6.43.61,8.33a47.72,47.72,0,0,0,1.41,7.41c1.11,4,4.11,8.6,3.72,12.76-.2,2.13-.87,4.77-2.66,6.13-.74.56-2.12-.21-2.25-.08a12.33,12.33,0,0,0-1.57,2,51.87,51.87,0,0,1-4,5.19C1828.43,332.06,1825.87,333.89,1828,335.28Z"/><path class="cls-16" d="M1742.77,199.37c.67,3.41,1.43,6.8,2.24,10.17a80.75,80.75,0,0,0,6.47,16.86c2.61,5.27,4.35,12.45,7.86,17.12,3.34,4.44,9.28,7.63,13.57,11.11,5,4,10.56,7.12,15.31,11.5,4.46,4.12,8.85,8.37,13.14,12.67s8,10.4,12.91,14.12c2.42,1.82,3,.51,5.1-1.38a37.13,37.13,0,0,0,4-4.51c.84-1.06,5.26-4.13,5.33-5.12.16-2-4.76-6.17-6.07-7.7-4.21-4.91-8.42-9.77-12.26-15s-7.33-10.39-12.26-14.62a102.31,102.31,0,0,0-13.21-9.21c-3.15-1.94-4.6-3.34-5.58-7-.62-2.37-1.06-4.75-1.76-7.11-1.76-5.92-3.26-11.94-4.71-17.95-1.67-6.87-2.48-13.6-.06-20.41,2.17-6.11,4.8-10.3,4.41-17.09a32.56,32.56,0,0,0-1.89-10.16c-1.29-3.08-2.65-2.51-6-2.74-5.61-.37-11.53-.72-16.19,3-9,7.22-12.41,21.7-11.77,32.65C1740.15,190.62,1742.33,197.14,1742.77,199.37Z"/><path class="cls-10" d="M1703,337.4a30.16,30.16,0,0,0,8.88-.72c6-1.27,10.06-4,14.13-8.43,2.83-3.09,7.7-5.57,9.73-9.21,2.62-4.68-2-11.07-2.78-15.82-.47-2.73-.24-5-2.63-6.64a7.54,7.54,0,0,0-8.42.38c-4.39,3.22-3.3,9.44-4.84,14.05-1.75,5.28-5.35,10.15-8.07,15a13.64,13.64,0,0,1-4.41,5.09c-2,1.31-4.63,1.62-6.35,3.4C1696.32,336.48,1702.27,337.33,1703,337.4Z"/><path class="cls-11" d="M1714.09,231.69c.24,7.38,2.38,14.8,3.18,22.16a188.82,188.82,0,0,1,.84,23.42c0,3.69-.14,7.38-.13,11.07,0,2.82-.91,8.84.47,11.32.78,1.39.93,1.49,3.16,1.69a33.49,33.49,0,0,0,4.48,0c2.44-.1,6.53.34,8.05-1.3,1.67-1.8,2.06-7,2.5-9.32.5-2.71.84-5.44,1.12-8.18,1.3-12.93,3.11-26.73.71-39.58-1.15-6.15-2.83-12.58-.66-18.67,2-5.46,5.58-10.19,9.15-14.67,7.12-8.93,9.37-20.16,17.76-28,4.28-4,8.84-7.85,10.53-13.68,1.23-4.24,1.69-11.59-1.35-15.12-3.26-3.77-10.82-5.52-15.46-6.33a41.48,41.48,0,0,0-15.11.07c-2,.41-5.84.92-7.44,2.41s-2,5.13-2.61,7.18c-1,3.25-1.71,2.86-3.7,5.22-1.63,1.94-1.58,3.61-1.76,6.16-1,14.34-6.8,28.2-10.84,41.94A67,67,0,0,0,1714.09,231.69Z"/><path class="cls-15" d="M1700.8,338.24c4.46.17,9.78.68,14.16-.16,4.18-.81,6.67-4.33,9.59-7.1s5.84-4,9.48-5.27a49.28,49.28,0,0,0,.15,9.09c.18,1.43.65,3.93,2.07,1.7.92-1.46.32-4.26.69-7.24a46.61,46.61,0,0,1,1.94-6.93,9.43,9.43,0,0,0,.28-5.66c-.31-1.05-2.14-5.47-3.47-5.76-1.6-.33-6.86,5.67-8.18,7-3,3.07-4.66,7-7,10.55-1,1.56-2.55,3.94-4.33,4.79s-4.31.83-6.28.75a13.08,13.08,0,0,1-4.95-1.05c-1.19-.61-1.41-1.3-2.74-1.5-2.7-.41-9.25,1.67-11.15,3.61C1688.47,337.68,1700.11,338.21,1700.8,338.24Z"/><path class="cls-9" d="M1739.49,77.3c1.38-1.35,1.84-3.58,3-5.17a38.67,38.67,0,0,1,5.26-5.29c4.19-3.88,6.21-7.1,6.13-12.9a18.31,18.31,0,0,1,1-7c.68-1.85,1.85-3.72,2-5.73.62-9.51-15.38.12-15.94,5.83-.54,5.39.2,11.7-2.12,16.56a42.13,42.13,0,0,1-3.78,6.24c-.81,1.12-4.14,4.2-3.61,5.83C1729.68,77.62,1737.41,79.34,1739.49,77.3Z"/><path class="cls-14" d="M1747.91,57.49l15.25-12.29a1.32,1.32,0,0,0,.4-1.53l-3.68-9.07a.94.94,0,0,0-1.47-.38l-15.25,12.29a1.32,1.32,0,0,0-.4,1.53l3.68,9.07A.94.94,0,0,0,1747.91,57.49Z"/><path class="cls-10" d="M1748.94,48.77c.78,1.29,2.87,1.78,4.09,2.39a5.3,5.3,0,0,1,3.23,4.52c.34,6.16-3,14.63,5.3,16.87,5.14,1.39,13.34-1.34,13.45-7.42.07-3.59-1.27-7.25,0-10.77,1.23-3.32,4.22-5.28,7-7.42a20.44,20.44,0,0,0,7.06-20c-1.68-7.38-7.45-14.14-15.28-14.68a25.94,25.94,0,0,0-9.39,1.06c-3.08,1-5.7,4-7.41,6.52-2.3,3.4-2.1,4.7-3.42,8.52-.62,1.8-2.7,3-3,6.13-.18,1.91.56,3,.48,4.9C1751,42,1747.5,46.37,1748.94,48.77Z"/><path class="cls-5" d="M1761.62,15.65a42.29,42.29,0,0,0,4.79.82c2.28.41,7.82,1.62,8.94,4,1.43,3-2.48,9.26-2.71,12.65-.11,1.72-.27,4.52,1.61,5.2,1.36.5,2.87-.26,4.48-.39,1.81-.15,4.25.12,4.28,2.29,0,3.17-3.46,3.55-4.64,6.54-1.46,3.71.22,9.33,4.23,11,4.38,1.81,10.86.26,14.71-2.51a8.85,8.85,0,0,0,3.86-6.63c.24-3.71-4.58-6.41-5.42-9.76-.64-2.51,1.27-5.48,1.63-8,1.86-12.75-9.13-18.9-15.09-20.72A26.78,26.78,0,0,0,1763.35,12C1761.82,12.87,1759.58,14.78,1761.62,15.65Z"/><path class="cls-7" d="M1718.13,112.08a28.08,28.08,0,0,0,8.77-1.29c5.95-1.64,10.44-4.24,13.74-9.58,3.08-5,7.48-13,7.27-19-.33-10-9.2,3.15-11.68,5.41,1.25-2.63,2.45-5.25,3.92-7.77,1.72-2.94.23-2.53-2.49-3.94-1.5-.78-4.37-4-5.92-3.8-1.76.24-4,4.52-4.82,5.85-3,4.77-5.87,9.91-8.68,14.57-2.49,4.12-4.57,11.86-5.17,16.18C1712.74,111.11,1716.81,112,1718.13,112.08Z"/><path class="cls-6" d="M1725.8,159.13c6.47.17,13.11.31,19.48,1.76a36.07,36.07,0,0,1,14.22,6.32,60.91,60.91,0,0,0,6.33,4.26c1.65.94,8.07,4.13,10,3.58,3.18-.93,4-10.36,4.21-13.18.41-4.93-1.25-10.46-1.89-15.36-1.39-10.75-3.36-20.95-3-31.72.37-10.29,4.95-20,4.85-30.29-.06-5.81-1.26-11.07-2.37-16.7-.66-3.33,1.1-7.28-2.41-9.17-7.07-3.8-15.53,3.61-20,8.19-5.58,5.74-11.28,11.84-15.63,18.59-7.09,11-7,19.94-10,30-4.72,16-3.65,18.68-5.22,30.5C1723.54,152.31,1718.8,158.94,1725.8,159.13Z"/><path class="cls-17" d="M1744.52,147.61l55.52-7.35a7.11,7.11,0,0,0,6-8.65l-8.5-36.93a2.9,2.9,0,0,0-3.21-2.22l-54.16,7.16a2.82,2.82,0,0,0-2.45,2.84l.71,39.91A5.38,5.38,0,0,0,1744.52,147.61Z"/><path class="cls-7" d="M1747.33,165.42c3.86,2,6.88-.15,9.68-2.79,3.17-3,6.58-4.45,10.13-6.84s5.89-6.69,8-10.49a73.39,73.39,0,0,0,6-12.68c1-3.11.48-6.23.15-9.5-.52-5.17-2-10.12-2.64-15.27-.49-4.29-.47-8.62-.61-12.92-.23-7.22-.51-15.11-4.88-21.2-3.25-4.53-9.71-6.3-13.39-1.08-4.79,6.79-5.09,16.95-2.91,24.65,2.35,8.27,6.05,15.72,7.88,24.21.33,1.53,2.26,5.94,2,7.43-.24,1.21-3.32,3.59-4.18,4.67-2.26,2.86-4.08,6-6,9a31.94,31.94,0,0,1-7.28,8.18c-1,.78-6.34,3.42-6.51,5.07C1742.36,159.26,1745.72,164.6,1747.33,165.42Z"/><path class="cls-10" d="M1736.1,165.25c2.68,1.76,11.58,2.36,13.42-1.1s-4-9.15-6.84-10.47c-3.19-1.48-9.54-.41-12.17,2.09C1728.34,157.83,1734.2,164,1736.1,165.25Z"/><path class="cls-13" d="M1752.4,84.43c1.49-6.1,4.48-15.38,11.65-16.68,9.07-1.65,13.08,5.47,16.45,12.78a115.65,115.65,0,0,1,8.6,26.81c.48,2.73-2.94,3.26-3.53.19a116.63,116.63,0,0,0-5.82-21.39c-2.67-6.6-7.22-19-16.07-16.43-6.72,2-8.43,12.92-9.56,19a99.09,99.09,0,0,0-1.4,23.22,1.7,1.7,0,1,1-3.4.23C1748.72,103,1750.21,93.42,1752.4,84.43Z"/><path class="cls-16" d="M1732.49,159.52a11.38,11.38,0,0,0,10.18,7c1.12,0,1.13,1.79,0,1.75a13.22,13.22,0,0,1-11.86-8.3C1730.38,159,1732.07,158.5,1732.49,159.52Z"/><path class="cls-13" d="M1751.47,38.33a1,1,0,0,1,.5,0,11.44,11.44,0,0,1,6.09,3.25c.27.3.2.85-.27.78a32.52,32.52,0,0,1-6.46-2.17c-.18-.08-.45-.28-.44-.42S1751,38.48,1751.47,38.33Z"/></g><g class="cls-3"><path class="cls-18" d="M168.86,337H0C.81,292.17,12.26,321,12.26,321S16,288.19,24.35,286.86C32.21,285.6,35.91,319,35.91,319s8.55-47.74,19.86-49.58c9.92-1.62,2.12,44.24,2.12,44.24a26.33,26.33,0,0,1,14.18-5.07c9.3-.39,12.09,8.92,12.09,8.92s9.09-18.37,16.73-18c9.57.49,5.51,19.15,5.51,19.15s24-17.5,31.43-17c10.32.75-1.23,26.21-1.23,26.21s8.57-6.14,27.93-7.08C182,320,181.53,328.32,168.86,337Z"/><rect class="cls-19" x="354.73" y="170.58" width="5.26" height="74.14"/><rect class="cls-19" x="79.33" y="170.58" width="5.26" height="74.14"/><rect class="cls-19" x="61.42" y="170.58" width="316.49" height="11.46"/><rect class="cls-19" x="350.32" y="256.19" width="14.1" height="80.84"/><rect class="cls-19" x="74.91" y="256.19" width="14.1" height="80.84"/><rect class="cls-20" x="354.73" y="182.05" width="5.26" height="3.72"/><rect class="cls-20" x="79.33" y="182.05" width="5.26" height="3.72"/><rect class="cls-19" x="61.42" y="191.01" width="316.49" height="11.46"/><rect class="cls-20" x="354.73" y="202.47" width="5.26" height="3.72"/><rect class="cls-20" x="79.33" y="202.47" width="5.26" height="3.72"/><rect class="cls-19" x="61.42" y="211.43" width="316.49" height="11.46"/><rect class="cls-20" x="354.73" y="222.9" width="5.26" height="3.72"/><rect class="cls-20" x="79.33" y="222.9" width="5.26" height="3.72"/><rect class="cls-19" x="61.42" y="244.72" width="316.49" height="11.46"/><rect class="cls-20" x="350.32" y="256.19" width="14.1" height="3.72"/><rect class="cls-20" x="74.91" y="256.19" width="14.1" height="3.72"/><rect class="cls-20" x="61.42" y="252.46" width="316.49" height="3.72"/><path class="cls-21" d="M266.71,224.24c-5-6.8-16.38-6.68-24.26-8.58-7.45-1.8-15.84-2.92-23.47-.87-6.14,1.66-15.46,8.45-14,15.26,1.68,7.68,15,7.84,21.28,9.4A46.71,46.71,0,0,1,240.38,245c2.78,1.77,4.56,1.91,3.55,5.08-.86,2.7-2.4,6.21-3.48,8.83-4.28,10.42-3,25.28-4.89,36-2.46,13.7-4.78,16.87,2.47,17.13,2.6.09,8.54.23,10.63-1.4,3.5-2.73,3.83-11.82,4.94-15.6,3.52-12,8.13-23.9,11.31-36C267.74,248.23,274.08,234.32,266.71,224.24Z"/><path class="cls-22" d="M255.44,328.83c-2.3-2.27-6.46-8-6.62-12.16-.21-5.34-3.08-8.22-6.8-8.6-2.3-.23-6.33,1.79-8.34,2.86-2.87,1.51-5.33,5.82-6.34,8.17-2.1,4.89,1.19,4.29,3.27,8.12,1.69,3.11,3.29,6.39,6.39,7.89,3.65,1.78,13.61,2.54,17.6,1.44C258.05,335.59,258.57,331.93,255.44,328.83Z"/><path class="cls-23" d="M290,328.4c-3.18-2.83-9.81-5.25-13.28-7.7s-6.37-8.68-10.31-9.52-7.21,3-11,3.28c-3.38.24-5.88-3.25-5.92,1.31-.05,5.77,5.42,9.84,9,13.06s7,7,11.86,7.81C274.17,337.29,301,338.21,290,328.4Z"/><g class="cls-24"><path class="cls-25" d="M252.8,264.79c-1.21-6.15-1.6-12.71-3.55-18.69s-5.18-13.6-7-18C240.67,224.46,237,222,233,221c-6.06-1.53-13.16-2.29-19.28-3.72-11.25-2.63-21.86-4.2-33.54-2.83a.92.92,0,0,0-1.21.38c-4.77,8.37-9.35,20.16,1.64,28.68,7.79,6,42.2-3.35,44.26,8,4.21,23.36,19.1,30.3,21.47,44.34,1,5.7.31,13.34,1.94,16.07,1.9,3.2,4.86,3,8.41,2.37,4.18-.72,6.51-2.57,7.48-6.35C264.3,307.36,255.41,278.14,252.8,264.79Z"/></g><path class="cls-26" d="M221.85,65.33c-2.6-1.08-8.51-2.09-12,1.18-5.64,5.26-4.39,12.72.26,13.64,2.37.47,12.06-2.29,14.36-3.77C229.32,73.24,228.58,68.13,221.85,65.33Z"/><path class="cls-13" d="M238.73,169.37c-.12-10.56-3.39-20.69-4.8-31.08-.47-3.45-1.21-11.59-3.07-7.92-2.09,4.13-.82,8.23-4.2,14.72-3.65,7-10.62,8.52-17,4.42-2.77-1.77-5.55-6.48-7.36-9.22-1.47-2.23-7.1-9-8.41-11.44-1.91-3.6-1.56,8.15-1.53,10.61a118.78,118.78,0,0,1-.94,15.55,104.28,104.28,0,0,0,.58,29.36c.68,4.19,1.71,8.73,1,13-.67,3.78-2.91,7.1-4.23,10.66-4.35,11.66,10.71,9.12,22.93,9.12,17.8,0,18.66-15,19-19.8C231.41,187.46,238.85,179.46,238.73,169.37Z"/><path class="cls-27" d="M241.33,172.67c0,17.61-8.59,6.86-21.67,6.86s-33.39,9.94-33.39-6.86c0-9.59,20.32-.54,33.39-.54S241.33,162.07,241.33,172.67Z"/><path class="cls-28" d="M245.83,145.46c-1.21-5.51-3.84-12.18-13.51-17.19-2.32-1.21-7.74-4.4-9.21-4.24-4.06.46,4.63,5.5,5.84,7.25,3.31,4.8,4.73,12.23,5.49,17.9a103.19,103.19,0,0,1,.87,21.73c-.34,4.77-.32,12.77,6.85,10.75,5.54-1.57,3.74-7.93,4-12.45C246.6,161.12,247.6,153.46,245.83,145.46Z"/><path class="cls-29" d="M232.72,105.35c.49-5.16,2.89-11.1.15-16-2.58-4.64-11.07-9.66-19.56-7.41-11.14,2.95-10,14.18-10.13,15.35a1.9,1.9,0,0,0-1.29.57c-1.58,2.87-1.17,14.26,3.61,12.92-.56,4,.92,7.64-2.51,10.47-2.63,2.16-6.54,2.46-7.86,5.93-1.39,3.65.77,7.07,2.94,9.8,2.57,3.24,5.52,7.3,8.25,10.39,5.85,6.65,14.75,6.9,19.58-.76,2.29-3.63,3.17-8,3.73-12.3.61-4.78-1.55-6.78-5.52-8.87C229.44,120.13,232.51,114.75,232.72,105.35Z"/><path class="cls-26" d="M238.78,100.21c2.63-7.53-.05-14.38-7-19.58-5.51-4.11-14.07-6.54-22.08-3.44-7,2.72-10.24,9.4-10.55,15.15-.08,1.44.48,8.56,1,9.22,1.29,1.51,1.64-1.33,3.6-.42s1.55,4.84,2.16,5.32c1.86,1.47,3.75-4.18,4.2-5.87,2.42-8.93,8.78-6.74,12.89-4.3,7.67,4.57,10.35,9.84,9.3,14C232.05,111.25,237.52,103.8,238.78,100.21Z"/><path class="cls-30" d="M254,163.56c.51-5.4-7.88-23.88-14.94-30.59-2.28-2.16,8.77,13.63,6.35,27.81-.66,3.83-4,16.7,1.44,18.56,1.86.65,6.16-1.62,6.84-3.62s-.9-3.19-1.24-4.93C251.87,167.76,253.76,166.43,254,163.56Z"/><path class="cls-31" d="M224.87,125.2c0,1.86-2.39,9.47-7.62,9.47s-10.58-10.87-9.54-12.41,3.13,6.09,9.54,6.09C223.83,128.35,224.87,123.34,224.87,125.2Z"/><path class="cls-32" d="M202.44,121.17c-7,1.83-14.65,4.63-19.6,7.54-5.52,3.24-7.11,12.24-8.12,19.62-2.89,21.18-.72,42.7-3.82,63.84-.89,6.09-3.35,14.61.19,20.24,5.81,9.22,10.67-9.46,13-13.31,4.14-6.83,11.22-12.62,12.24-21,.57-4.72-1.5-9.23-2.28-13.82a81.24,81.24,0,0,1-.85-16.64c.23-6.08.74-12.14,1-18.21.25-5.46-.61-11.4.23-16.77a11.08,11.08,0,0,1,5.26-8.21C200.35,124,205.17,120.45,202.44,121.17Z"/><path class="cls-30" d="M191.6,197.75c-.38-3-6.21-5.7-8.11-7.56-2.08-2.05.49-3.38,1.38-8.49,1.27-7.28-2.07-11.66-2.66-16.63-.53-4.56.84-8.88,1.75-13.29.94-4.63,1.74-9.41,1-14.14-.22-1.48-.71-5.11-1.77-6.49-2.15-2.82-3.49-.67-10.15,8.92-4.65,6.7-5.21,12.54-7.49,20.3-1.72,5.84-.48,9.76-.43,15.63,0,4.73-2,9.68-1.59,14.46.78,10.12,6.18,11.79,14.12,16.18,3.26,1.8,8.2,4.85,11.25,1.38C191.3,205.32,192,201.18,191.6,197.75Z"/><path class="cls-33" d="M208,205.71c-3-1.48-9.56-5.08-12.58-6.5-2.59-1.22-4.85-3.35-7.51-3.08-6.29.64-9.14,10.05-3.15,12.94,3.24,1.56,7.72,2.43,11.14,3.35,2.71.73,10.51,3.08,11.9,3.46C214.92,217.86,221.85,212.57,208,205.71Z"/><polygon class="cls-34" points="268.68 217.09 206.52 217.09 216.18 175.72 278.34 175.72 268.68 217.09"/><path class="cls-35" d="M246.9,196.41a5.9,5.9,0,0,1-5.48,4.34,3.38,3.38,0,0,1-3.46-4.34,5.9,5.9,0,0,1,5.48-4.35A3.39,3.39,0,0,1,246.9,196.41Z"/><polygon class="cls-35" points="205.29 217.09 206.52 217.09 216.18 175.72 214.95 175.72 205.29 217.09"/><rect class="cls-36" x="205.29" y="217.09" width="62.16" height="2.37"/><rect class="cls-35" x="179.54" y="217.09" width="25.75" height="2.37" transform="translate(384.84 436.56) rotate(180)"/><path class="cls-37" d="M469.81,337H328.89c.68-32.2,10.23-11.53,10.23-11.53S342.26,302,349.21,301c6.56-.91,9.65,23.08,9.65,23.08s7.13-34.27,16.57-35.59c8.28-1.16,1.77,31.76,1.77,31.76A24.09,24.09,0,0,1,389,316.63a10.18,10.18,0,0,1,10.09,6.4s7.59-13.19,14-12.9c8,.35,4.61,13.74,4.61,13.74s20-12.56,26.22-12.18c8.62.54-1,18.81-1,18.81s7.15-4.4,23.3-5.08C480.73,324.81,480.38,330.78,469.81,337Z"/></g><g class="cls-3"><path class="cls-38" d="M572.23,279.08a9.16,9.16,0,1,1,9.16,9.15A9.17,9.17,0,0,1,572.23,279.08Zm3.82,0a5.34,5.34,0,1,0,5.34-5.34A5.35,5.35,0,0,0,576.05,279.08Z"/><path class="cls-38" d="M757,279.09a4.6,4.6,0,1,1,4.6,4.59A4.6,4.6,0,0,1,757,279.09Z"/><path class="cls-39" d="M523.58,279.09a57.8,57.8,0,1,1,57.8,57.8A57.87,57.87,0,0,1,523.58,279.09Zm6.87,0a50.93,50.93,0,1,0,50.93-50.93A51,51,0,0,0,530.45,279.09Z"/><path class="cls-39" d="M703.84,279.09a57.8,57.8,0,1,1,57.8,57.8A57.87,57.87,0,0,1,703.84,279.09Zm6.87,0a50.93,50.93,0,1,0,50.93-50.93A51,51,0,0,0,710.71,279.09Z"/><path class="cls-38" d="M639.79,288.31A15.71,15.71,0,1,1,655.5,304,15.72,15.72,0,0,1,639.79,288.31Zm3.81,0a11.9,11.9,0,1,0,11.9-11.89A11.91,11.91,0,0,0,643.6,288.31Z"/><path class="cls-40" d="M579.88,280.27l.13.13.13.14.12.08.19.13,0,0,.07,0,.32.13.15,0a.7.7,0,0,0,.14,0L654,290.05l.23.17.12.07.23.12.14,0,.26.08.11,0a1.75,1.75,0,0,0,.4,0,3,3,0,0,0,.42,0l.14,0,.21,0,.05,0,.22-.1.2-.11.16-.12.21-.18,0-.05,69.13-73.2,18.32,46.39c.28.7,15.6,17.28,15.6,17.28a1.91,1.91,0,1,0,2.86-2.53s-14.62-17.5-14.69-17.67L715.79,177.6a2.28,2.28,0,0,0-3-1.29,2.3,2.3,0,0,0-1.29,3L719,198.12H624.11a2.25,2.25,0,0,0-.77.12,2.28,2.28,0,0,0-1.5,2.35l-42.11,77.53h0l0,0a.31.31,0,0,0-.05.12.67.67,0,0,0-.09.21.8.8,0,0,0-.05.21.61.61,0,0,0,0,.13v0a1.69,1.69,0,0,0,0,.23v.15a1.16,1.16,0,0,0,0,.18,1.13,1.13,0,0,0,0,.18l.06.16.08.18a.86.86,0,0,0,.1.16Zm43.62-74.75L652.23,286l-67.84-8.44ZM724.44,212l-68,72-29-81.32h93.42Z"/><path class="cls-39" d="M711.38,178.58a2.28,2.28,0,0,1,2.15-2.42c5.78-.35,12.43-.72,14.25-1.95,2.33-1.58,3.08-4.54,2.06-5.74-2-2.29-17.09-1.64-29.9.36a2.29,2.29,0,1,1-.7-4.52c6.8-1.06,29.23-4,34,1.12,3.87,4.15,1.65,9.63-2.06,12.07-2.74,1.79-3.2,2.09-17.4,3.23h-.14A2.29,2.29,0,0,1,711.38,178.58Z"/><path class="cls-40" d="M625.92,280.23a1.91,1.91,0,0,1,2.35-1.34L677,292.21l-.39-.44a2.29,2.29,0,0,1,3.43-3l10,11.33a2.29,2.29,0,0,1-3.43,3l-5-5.67-54.36-14.86A1.92,1.92,0,0,1,625.92,280.23Z"/><path class="cls-12" d="M646.82,181.46c-.66-12-13.9-10.28-22.84-10.33-5.15,0-6.54,3-7.26,7.63s-1.17,9.68-1.82,14.49c-1.82,13.36.92,27.46,2.47,40.77.63,5.41,3.36,11.39.65,16.41s-8,8.95-8.85,14.94c-1.77,13.15-1.56,24.36-3.77,37.46-.72,4.29-2.89,10.54-3.65,14.82-.57,3.22,0,5.91,6.39,6.61,1.92.21,10.4,1.4,12.74-2.79,1.37-2.47.67-4.75.79-6.92.16-2.88.55-5.71,1-8.56,1.88-13.42,6.13-26.4,7.75-39.84.9-7.52.08-15.06,1.54-22.51,1.41-7.2,4.07-14.06,6.53-20.94,2.35-6.55,3.39-13.42,5.59-20C647.83,191.43,647,185.08,646.82,181.46Z"/><path class="cls-5" d="M628.43,333.59c-1-2.76-5.4-4.95-6.86-7.56-2-3.65-.87-6.46-5.27-8.52s-7.52-.57-11.16,1.8c-2.9,1.88-3.33,3.35-3.89,7.48-.45,3.3-1,5.2,2.49,7.16,3.13,1.75,6.53,4.31,9.89,5.51a21.46,21.46,0,0,0,10.9.81C628.66,339.37,629.68,337.1,628.43,333.59Z"/><path class="cls-10" d="M645.6,55.68c-.43-.84-3.29-3.54-3.88-4.24-1.27-1.51-1-1.88-1.32-3.63s-2.25-4.36-3.54-5.63c-6.81-6.66-14.12-6.61-22.53-2.1,0,0-.06.06-.09.08-9.74,4.89-7.56,19.94-2.77,27.59a17.71,17.71,0,0,1,2.79,11c-.18,3.31-1.14,6.78-.75,10.1.63,5.4,5.83,7.2,10.12,9.24,3,1.4,5.42-1.27,5.84-3.31.52-2.6.79-5.26,1.12-7.88.39-3,.4-10.5,4-11.81,1.42-.31,6,.14,6.8,0a3.54,3.54,0,0,0,2.92-2.2c.53-1.33.09-2.93-.21-4.25a39.46,39.46,0,0,1-.89-9C643.22,58.34,646.59,57.61,645.6,55.68Z"/><path class="cls-13" d="M643.22,64.74c-2.65.51-9.16,0-3.14-1.81.47-.15,2.5-.7,3.06-.4S644,64.59,643.22,64.74Z"/><path class="cls-5" d="M639.12,32.07c-1.93-1.54-10-1.77-14.25-1.08-8.4,1.35-8.16,4.36-12.6,7.57-2.28,1.65-4.63,1.91-6.87,3.62-2.57,2-2.94,5.8-3,8.4-.1,5.73,3.83,11.62,7.25,16,1.75,2.26,2.34,2.6,4.92,1.39,2.13-1,3.43-2.24,2.5-4.41-.81-1.89-3.29-3.27-2.4-5.72,1-2.82,3.67-1.24,5.7-1.69,5.92-1.33,1.58-7.33,1.69-10.79.07-2.06,1.08-2.58,3-3,1.58-.33,9.65-.39,11-1.31C640.28,38.3,640.67,33.31,639.12,32.07Z"/><path class="cls-5" d="M636.57,67.66c-2.64.25-3.35-.51-5.43-1.89-1.55-1-2.7-1.15-3.76-2.78-1.23-1.87-1.35-6.9-3.93-6.42s1,7.27,1.06,9.34c.17,3.63-1.08,6.31,2.3,8.72a17.79,17.79,0,0,1,3,2c.9.95.81,2.08,2.15,2.12,1.15,0,2.62-2.54,4.17-2.85s3.08.27,4.66.11c3-.3,5.33-2.14,5.07-5.29C645.25,63.13,639.4,67.39,636.57,67.66Z"/><path class="cls-5" d="M644.5,61.2a1.93,1.93,0,0,0-1-1.72c-1.65-1-6,2.07-6.78,2.73a2.57,2.57,0,0,0-.62,1.23c-.22,1.34.77.74,1.63.25a10.39,10.39,0,0,1,5.6-1.32,1.56,1.56,0,0,0,.72-.16C644.37,62.05,644.56,61.84,644.5,61.2Z"/><path class="cls-41" d="M622.32,84.7c-4.83-3.18-8.53-4.48-8.66-11.22,0-1.21-1.39-2-2-1-1.51,2.39-2,5.05-2.55,7.77-.45,2.19-1.06,4.33.24,6.35,2.88,4.45,9.65,6.54,14.6,6,.25,0,1.51-.18,1.61-.75A6.89,6.89,0,0,0,622.32,84.7Z"/><path class="cls-41" d="M636.33,77.27a.83.83,0,0,0-1.33.33c-1.36,2.88-4.62,3.32-6.43,5.75-1.13,1.5-2.49,4.56-1.91,6.46s2.51,2.07,4.11,1.78a10,10,0,0,0,6.35-4.87C638.68,84.17,639,79.12,636.33,77.27Z"/><path class="cls-42" d="M642.49,307.77c0-1.76-2.25-7-3.82-9.68-3.85-6.53-4.64-18.33-6-25.21-2.29-11.93-9.44-21.79-10.49-34.09-.56-6.64-3.47-33-3.21-39.52.17-4.38,5.4-3.36,6.49-7.84A60.57,60.57,0,0,0,627.27,180c.16-4.32-.5-5-5-5.73-5.79-.95-23.63-2.76-32,6.29-4.13,4.47-3,6.89-1.93,12,.74,3.34,2.53,16.26,5.71,26.05,3.32,10.25,9.57,25.67,11.55,31.85s1.52,11.25,4,17.45c2.85,7.19,7.16,14.05,9,21.6.71,2.95,3.81,16.85,5.25,19.7,2.26,4.5,3.33,8.88,10,7.57a11.72,11.72,0,0,0,6.21-3.09A9.32,9.32,0,0,0,642.49,307.77Z"/><path class="cls-4" d="M658.67,324.15c-2.28-3.45-6.65-4.45-9.44-7.36-2.62-2.73-3.79-6.82-7.8-7.5-3.69-.61-7.06,1.7-8.68,4.82a7.48,7.48,0,0,0,.71,8.6c2.9,3.3,6.37,6.16,9.33,9.45,2.61,2.9,7,4.09,11.08,4.44C661,337.22,664.91,331.77,658.67,324.15Z"/><path class="cls-12" d="M622.65,175a.76.76,0,0,0-1.52,0c.17,6.05-.91,11.91-1.66,17.88-.13,1,1.4,1,1.52,0C621.75,186.91,622.83,181.1,622.65,175Z"/><path class="cls-7" d="M719.19,149.35c-.75-2.16-12-13.78-14.83-17.28-5.73-7.12-16.3-13.7-22.65-20.27-3.23-3.35-18.84-19.79-21-22.63-3-4-9.85-8.4-14.6-8.66a44.41,44.41,0,0,1-5.51-.6c-.72-.14-3.21-1.28-3.84-.72-1.86,1.66-1.15,5.67-5.34,8.67-4.62,3.3-12.08,1.38-16.75-1.47a12.49,12.49,0,0,1-5.46-7c-.72-2.07-9.06,1.73-11.19,2.42-7.53,2.42-12.67,4.9-15.89,14-1.24,3.48-2,7-3.55,10.33a123.92,123.92,0,0,0-8.2,25.9,43.54,43.54,0,0,0,.21,10.32,101.57,101.57,0,0,0,9.2,32.64,34,34,0,0,0,2.81,4.52c1.7,2.41,1.6,2.49,3.62.92a19.19,19.19,0,0,1,8.56-3.86,12.5,12.5,0,0,1,5.41.17c1.62.53,2.71,1.88,4.18,2.2,3.68.8,8.45-.42,12.88-1.1a64.31,64.31,0,0,1,21.69.18c2.16.39,6,1.2,8-.61,3.92-3.44.45-10.19,0-12.83-2.71-15.91.19-35.31.92-40.3.36-2.42-.53-8.44,2.42-9.1,2.49-.56,6.87,3.58,8.62,4.81q6.19,4.34,12.23,8.93c8.53,6.48,20.8,13.4,29,20.23,2,1.69,4.72,4.86,6.66,6.65,1.15,1,1.84,1,3.49-.44s1.6-3.24,3.72-4C714.83,151.16,719.93,150.78,719.19,149.35ZM590.11,158c-.92-5.25-3-12.7-2.39-17.92.68-5.58,2.94-9.21,4.26-14.65C592.55,136.46,590.73,147.08,590.11,158Z"/><path class="cls-6" d="M594.8,176.17c-1.92-6.26-3.26-12-3.3-18.57,0-1-1.39-.56-1.39.42a60.77,60.77,0,0,0,3.22,18.55C593.61,177.51,595.09,177.11,594.8,176.17Z"/><path class="cls-10" d="M608.42,183.31c-3.43-3.13-4.77-7.34-11.12-7.14-4.86.16-8.4,1.93-12.15,5a.65.65,0,0,0-.2.81.56.56,0,0,0,0,.13c.42,2.16.93,4.55,3.56,3.89,3.94-1,7.93-3.1,11.73-4.7.71.13,1.56,1.37,2.11,1.83a20.64,20.64,0,0,0,2,1.59c1.27.81,3.26,1.29,4.59.54C609.83,184.75,609,183.79,608.42,183.31Z"/><path class="cls-10" d="M729.78,156.12c-1.32-3.3-9.58-5.68-13-5.37-3.6.32-7.77,2.29-8,6.15-.12,2.09,4.45,12.71,7.28,11.56-3,5.26,7.27,2.36,9.23-.17C727.63,165.34,731.21,159.69,729.78,156.12Zm-15.37,3c.47-1,2.58-1.27,3.49-.87,3.26,1.42,1.21,5.9-.17,7.8-.17-.49-.34-1-.52-1.48C716.71,163.47,713.87,160.37,714.41,159.15Z"/><path class="cls-17" d="M600.65,121.92c5.6,0,8.2,2.24,19.37,1.07,6.83-.72,13.42,0,20.26.05,1.32,0,6.21.49,7.71-1.1.65-.7.18-1.74.28-3.15.15-2.21-7.92-.13-10.22,0a65.14,65.14,0,0,1-10.07-.48,38.11,38.11,0,0,0-10.55.76c-4.54.82-8.48,0-12.92-1-3.57-.78-7,.07-7.08.77C597.17,121.88,596.52,121.88,600.65,121.92Z"/><path class="cls-17" d="M601,130.48c5.22.48,10.19,2,15.48,2,6.56,0,12.57-1.28,19-1.06,3.15.11,11,1.74,11.71,0s1.07-3.09.81-3.87c-.42-1.23-3.49.35-6.29.44-6.63.23-12.2-.85-18.87.1-7.42,1-11.62-.3-18.85-1.43-2-.32-9.13-.66-9.39.06C592.92,131.32,597.61,130.18,601,130.48Z"/><path class="cls-8" d="M601.94,82.4a2.23,2.23,0,0,0-2.26-2.08c-2.54.23-4.34,1.47-6.61,2.57-.83.4-.84,1.52-.82,2a191.39,191.39,0,0,1-.57,24.35c-.15,2,.62,2.48,2.65,2.83,2.87.51,5.48.69,5.95-2C601.44,103.25,602.64,89.5,601.94,82.4Z"/><path class="cls-8" d="M596.5,117.25s-2.32,0-2.67,0c-.73-.08-1,.38-1.12,1-1.22,8.43-2.05,27.49-2.06,27.7-.07,1.06.58,1.58,1,.68a75.7,75.7,0,0,0,3.86-13,91.3,91.3,0,0,0,2-15.26C597.45,118,596.83,117.25,596.5,117.25Z"/><rect class="cls-38" x="591.97" y="111.45" width="6.81" height="6.81" rx="0.89" transform="translate(1180.89 272.45) rotate(-175.85)"/><path class="cls-8" d="M648.93,81a5.38,5.38,0,0,0-2.07-1.18,29.54,29.54,0,0,0-5.85-.78c-1.63,0-2.24.37-1.51,1.06,6.17,5.81,7.76,15,8.76,23,.65,5.2-.19,9.29,2.67,9.59.25,0,2.83.52,3.25-.53C658.42,101.57,654.15,85.11,648.93,81Z"/><path class="cls-8" d="M652.25,118.15c-.87.06-2.09.24-2.15.25-.68.11-.83.57-.89,1.08a34.13,34.13,0,0,1-1.76,8.48c-.84,2.43-.72,5.06-.92,7.59,0,.65-.58,4.77-.1,4.42,3-2.2,6.55-13,7.36-17C654.09,121.41,655.05,118,652.25,118.15Z"/><rect class="cls-38" x="648.59" y="111.98" width="6.81" height="6.81" rx="0.89" transform="translate(1303.99 230.77) rotate(-180)"/></g><g class="cls-3"><path class="cls-43" d="M884.47,176.36c1.29-.21,2.61-.51,3.95-.86l-3.65,1.12Z"/><path class="cls-44" d="M901.1,227.06c0,1.95-.11,3.77-.21,5.48-.47,9.1-1.54,14.83-3.42,18.9-2.31,5-5.85,7.49-11,10.63-10.18,6.21-42,29.92-42,29.92l-9.13-12s22.63-21.52,33.94-27.73,9.29-10.17,10.73-36.16c.35-6.35.76-12,1.17-16.9.3-3.77.63-7.12.94-10.09,1.25-11.8,2.36-17.28,2.36-17.28Z"/><path class="cls-44" d="M937.12,295.27l-15.31,5.85s-11.17-24.82-14.27-44.31a112.31,112.31,0,0,0-3.28-14.47c-7.81-26.44-28-48-21.62-65.75l16.73-11.92,12.86,4.18c6.12,19.87,7.75,57.84,9.58,73.89S937.12,295.27,937.12,295.27Z"/><path class="cls-13" d="M819,299.68l11.31,10s-.95,14.77,7,24.44l-1.94,2.19L808,309Z"/><path class="cls-45" d="M833.2,287.86s-8.94,11.21-14.23,13.25c0,0,.51,7.88,10.29,8.61,0,0,6.18-11.1,10.69-14.41Z"/><path class="cls-13" d="M935.35,324.31l13.86-7.11s14.78,4.74,25.54,1.46l1.28,2.09-36.11,17.61Z"/><path class="cls-45" d="M928.05,305.7s8.24,10.63,8.32,18.09c0,0,8.47,2.89,11.57-6.59,0,0-5.66-5.54-9.94-16.09Z"/><path class="cls-46" d="M832.41,288.81s3.65,5.38,1,14.21c0,0,3.18-5.13,6.54-7.71Z"/><path class="cls-46" d="M939.17,303.82s-4.82,4.87-5.34,11.23c0,0-3.75-7.27-5.18-8.94Z"/><polygon class="cls-47" points="921.8 301.11 920.1 301.84 924.84 309.02 939.92 303.54 938.58 294.42 921.8 301.11"/><polygon class="cls-47" points="834.12 278.49 845.31 293.33 839.72 297.22 829.26 285.18 834.12 278.49"/><path class="cls-48" d="M900.89,232.54c-.47,9.1-1.54,14.83-3.42,18.9,1.91-14.42-11.85-40.52-16.3-52.28.3-3.77.63-7.12.94-10.09C884.2,202,893.76,214.3,900.89,232.54Z"/><path class="cls-49" d="M908.54,103s6.45,3.74,9.13,18.58,3.16,18.24,14.1,15.2v14l-16.54,4.38Z"/><path class="cls-50" d="M907.7,169.9c-5,.28-12.33,3.73-19.28,5.6a35,35,0,0,1-5.78,1.08c-8.39.73-9-9.48-9-9.48l-.14-.16L869,162.15a8.54,8.54,0,0,1-2-8.25c3.6-12.2,13.08-44.22,14.56-47.85,1.82-4.5,7.66-6.32,10.1-10.82,0,0,13,3.16,18.35,9.24s4.87,16.54,5,26.14,2.67,13.14,3.65,23.84S914.14,169.53,907.7,169.9Z"/><polygon class="cls-51" points="891.27 95.85 906.57 109.45 906.98 101.81 891.27 95.85"/><polygon class="cls-50" points="892.18 91.02 890.43 95.23 905.63 106.42 906.6 98.72 892.18 91.02"/><path class="cls-52" d="M900.53,111.89s1.44,14.59-15.76,39.16l5.66,10.7v-6.57S904.05,130.18,900.53,111.89Z"/><path class="cls-52" d="M884.47,176.36c-.62.09-1.23.17-1.83.22-8.39.73-9-9.48-9-9.48l-.14-.16Z"/><path class="cls-45" d="M918.76,186s0,4-7.54,2.75c0,0-4.92,6.42-10.59,8.31a10.61,10.61,0,0,1-1.81.44s-3.1-6.38-3.46-11.5L880,172.52l7.41-4.78,4.77-3.07L901.1,182l7.44.73S913.15,187.47,918.76,186Z"/><path class="cls-45" d="M967.68,127.93s1.46,1.25.09,2.25c0,0,.82,1.46-1.46,2.65-1.76.91-5.53,2.46-7.15,3.12a2.58,2.58,0,0,1-1.6.12l-2.23-.51a1.67,1.67,0,0,0-1.52.42c-2.39,2.23-11,10-18.33,12.81V136.26l13.91-4.58a1.45,1.45,0,0,0,.92-.87,25.7,25.7,0,0,1,3.6-6.71c2-2.32,8.79-2.33,10.94-3.95a.36.36,0,0,1,.58.31c0,.91-.47,2.36-2.73,3.16,1.79-.54,6.09-1.77,6.29-1.1.24.85.24,2.19-1,2.19.16,0,1.81-.06,1.69,1.34S967.68,127.93,967.68,127.93Z"/><path class="cls-13" d="M933.63,152.44h0a1.86,1.86,0,0,1-1.86-1.86v-13.8a1.86,1.86,0,0,1,1.86-1.86h0a1.85,1.85,0,0,1,1.85,1.86v13.8A1.85,1.85,0,0,1,933.63,152.44Z"/><path class="cls-46" d="M900.63,197.06a10.61,10.61,0,0,1-1.81.44s-3.1-6.38-3.46-11.5L880,172.52l7.41-4.78.57-.16c-6.55,5.67,4.33,13.85,8.4,17.8C896.38,185.38,898.52,193.48,900.63,197.06Z"/><path class="cls-13" d="M877.56,171.85h0a1.85,1.85,0,0,1,.6-2.55L889.9,162a1.85,1.85,0,0,1,2.55.6h0a1.84,1.84,0,0,1-.6,2.55l-11.73,7.27A1.86,1.86,0,0,1,877.56,171.85Z"/><path class="cls-46" d="M957.56,136.07l-2.23-.51a1.67,1.67,0,0,0-1.52.42c-2.39,2.23-11,10-18.33,12.81v-7.47c0,2.71,1.73,4.86,5.24,3.11a73.9,73.9,0,0,0,10.76-7.5C953.54,135.1,954.56,134,957.56,136.07Z"/><path class="cls-53" d="M902.22,64.23s0-13.2-6.68-15c0,0-.1,3.55-5.11,5.1-4.78,1.48-15.78,5-14.13,17.54,0,0-1.71.92-2.92-1.27,0,0,.12,1.94,2.79,3,0,0-2.79,1.09-2.06,3.64,0,0,.36-2.18,2.19-1.82,0,0,2.58,12.65,17.23,13Z"/><polygon class="cls-45" points="893.8 83.22 893.25 93.98 903.92 98.82 903.92 85.23 893.8 83.22"/><path class="cls-46" d="M894.53,85.29s8.3,4.95,9.4,8.24v-8.3Z"/><path class="cls-45" d="M894.8,60.33s6.75.73,13.32,10.76,5.47,15.51-2,16.42a18.38,18.38,0,0,1-12.4-2.74s-5.11-.73-5.11-4.92S893,77.66,893,77.66s-.73-5.84-3.47-8.94C889.51,68.72,894.62,65.62,894.8,60.33Z"/><path class="cls-54" d="M1180,336.8h-9.32c-3.48-1.74-16.16-19.75-18.52-23.13a2.62,2.62,0,0,1-.45-1.21l-.88-7.93a50.29,50.29,0,0,0,12-13.13,64.31,64.31,0,0,0-1.61,6.34c-1,5.1-1.81,12.07.42,16.11,2.74,5,12.91,17.69,12.91,17.69C1179.47,331.54,1180,336.8,1180,336.8Z"/><path class="cls-55" d="M1164.6,289.16c-1.15,1.31-1.86,2.22-1.86,2.22v0a64.31,64.31,0,0,0-1.61,6.34c-3.9,4.27-8.85,12-9,15.93a2.62,2.62,0,0,1-.45-1.21l-.88-7.93a7.79,7.79,0,0,1-.84.79s0,0,0,0a9.14,9.14,0,0,1-3.57,1.75l-.51-8.12,18.46-10.27Z"/><path class="cls-54" d="M1201,269.39a15.4,15.4,0,0,1-.57,2.12,13.26,13.26,0,0,1-4.22,6.48c-3.82,2.87-15.53.48-20.32,1.68-3.37.84-8.54,6.34-11.28,9.49-1.15,1.31-1.86,2.22-1.86,2.22v0a50.29,50.29,0,0,1-12,13.13,7.79,7.79,0,0,1-.84.79s0,0,0,0a9.14,9.14,0,0,1-3.57,1.75,9.66,9.66,0,0,1-2.49.3s-7.65,10.75-11.71,15.3-2.15,11.47-2.15,11.47c4.78,0,4.49,5.26,4.49,5.26h-10.23s-.48-6-.72-13.15,8.34-20.61,8.6-21c-2.4,1.43-10,.47-16.49-2.64a18.5,18.5,0,0,0-12.19-1.43s-2.63,5.26-6.45,7.41-4.55,7.65-4.55,7.65l12.43,18.17c7.42.72,4.55,5,4.55,5h-9.33l-17.56-20.68a6.11,6.11,0,0,1-1.45-3.59L1080.5,305c-23.19,10-22.71,23.66-22.71,23.66,2.87,0,3.35,4.78,3.35,4.78h-8.61s-1.19-2.15,0-8.6,7.89-16.26,11.72-21.15,4.3-10.89,8.12-16.86,8.13-14.85,23.43-14.59c10.38.19,44.23,2.87,49,1.92s13.38-16,26.53-17,16.74,9.09,16.74,9.09l10.54,2.54Z"/><path class="cls-55" d="M1165.18,264.21a14.58,14.58,0,0,0-.9,11.71c1.24,3.1,6.25,7.15,6.25,7.15s4.08-2.85,4.64-5.72-1.11-7.16-1-9.24S1165.18,264.21,1165.18,264.21Z"/><path class="cls-55" d="M1057.67,328.67c2.87,0,3.35,4.78,3.35,4.78h-4.79a25.83,25.83,0,0,1,2.63-13.39c2.56-4.75,12.29-13.33,16.75-17.13a6.5,6.5,0,0,0,2.28-4.88l.1-9.07,2.39,16C1057.19,315,1057.67,328.67,1057.67,328.67Z"/><path class="cls-56" d="M1175.17,261.13a27,27,0,0,0-.84,10.76,12.29,12.29,0,0,1-2.39,8.49s-7.53-4.42-7.65-10.28,1.79-8.61,4.66-9A32.52,32.52,0,0,1,1175.17,261.13Z"/><path class="cls-54" d="M1089.83,272.68c-12.6-.51-37.62,20.05-56.43,16.3s-18.48-12.83-18.48-12.83-3.19,7.61,1,13.29c0,0-1.27.9-3-1.33,0,0,1.51,11.29,14.66,12.75,24.49,2.71,46.53-25.5,55.3-20.4Z"/><path class="cls-57" d="M1152.73,267.75s3.9,10.35,16.63,16.39l1.9-1.69s-12.31-5.84-16.87-16.27Z"/><path class="cls-58" d="M1201,269.39a15.4,15.4,0,0,1-.57,2.12c-1.39-.13-1.78-1.34-1.8-2.69Z"/><path class="cls-59" d="M1156.92,271.79c-13.56-.66-49.46-29.31-87.47-59.65-43.81-35-93.48-94.62-105.88-87.65l-1.09-1.94c13.71-7.71,59.69,49,108.36,87.85,36.06,28.78,73.34,58.54,86.19,59.16Z"/></g><g class="cls-3"><path class="cls-60" d="M1337.26,333.16h16.46l19.17-91.7a74.83,74.83,0,0,0,1.44-19.92l-1.88-29.89-2.34-36.38h-40.7l19.2,77.26a19.29,19.29,0,0,1,.41,7.06Z"/><path class="cls-60" d="M1312.44,333.16h15.88l6-177.89h-32.92l-1.18,7.23c-2.06,13-2.08,21.57-.5,28.67.69,3.09,9.38,44,9.38,44Z"/><polygon class="cls-60" points="1318.96 190.55 1365.31 193.25 1366.5 155.27 1318.34 155.27 1318.96 190.55"/><path class="cls-61" d="M1359.17,66.51c-12.78-3.42-33.48-4-49.29-.65-18.31,3.83-15.43,11.48-15,14.65,2.27,15.17,6.42,74.76,6.42,74.76h68.76c2.85,0,2.72-2,2.93-4.43,1.12-13,2.76-53.72,2.16-69.75C1375,75.39,1375.45,70.85,1359.17,66.51Z"/><path class="cls-61" d="M1400.6,132.73l-49.19-46A106.35,106.35,0,0,1,1358.7,75c4.47-6,9.26-6.81,16.15-.94,5.77,4.93,18.26,21.14,20.34,24,5.09,7,19.54,26.25,19.54,26.25l-4.18,5.22C1407.75,132,1403.06,135.1,1400.6,132.73Z"/><path class="cls-61" d="M1268.35,137.65c.62-13.11,8.66-40.83,17.52-55.29,7.69-12.56,14.92-15.57,22.37-13.94,2.32.51,1.12,6.36,0,10.42-3.17,11.48-17.8,49.78-23.77,57.9-3.35,4.55-6.75,12.35-11.28,9C1271.27,144.27,1268.11,142.57,1268.35,137.65Z"/><path class="cls-62" d="M1346.12,63.7h-1.23a2.06,2.06,0,0,1-2-1.72,65.11,65.11,0,0,1-.74-8.91,80.05,80.05,0,0,1,1-14.17h-17.74l.38,21.9a2.83,2.83,0,0,1-2.84,2.9h-.43c.11,6.25,9.32,9.89,16.06,9.89S1349,68.23,1346.12,63.7Z"/><path class="cls-13" d="M1288.67,139.56c-2.63,2.42-17.33,6.76-20.21,2.16-1.85-3-1.33-9.68.08-11.72,3-4.39,17.28-2.64,21.38.92C1291.83,132.57,1290.8,137.61,1288.67,139.56Z"/><path class="cls-13" d="M1414.23,121.58c.43,3.7-9.46,14.79-14.29,12.72-2.6-1.11-7.47-4.88-7.59-7.31-.25-5.22,10.53-12.43,15.75-13.1C1410.5,113.58,1414,119.16,1414.23,121.58Z"/><path class="cls-62" d="M1468.9,90.6c-.44-1-4.86,3.09-7.38,4.81a5.51,5.51,0,0,1-3.58.75c-1.56,0-3.22-.18-4.36-.28-.82-.07-1.38-.26-1.32-.58.09-.53.09-.78,1-1.22,1.1-.53,4-1,4.74-1.66s.66-.91-.23-.79a41.76,41.76,0,0,0-7,1.23,9.93,9.93,0,0,0-3.15,1.84,28.29,28.29,0,0,0-3.24,3.29l-43.28,28.17a3.46,3.46,0,0,0-.73,5.12l2.5,3a8.16,8.16,0,0,0,12,.66s23.88-24.09,32.2-31.81a5.44,5.44,0,0,1,2.6-1.11c4.16-1,9.12-.6,11.18-1.83C1463.13,98.87,1469.35,91.67,1468.9,90.6Z"/><path class="cls-62" d="M1348.21,40.19c0,3.29-.83,4.85-2,7.32-1.93,4-3.89,6.55-7.43,6.44-5.74-.19-11.85-7.36-11.72-16s4.91-15.41,12.18-15.17c6.41.21,8,3.23,8.2,10.13C1347.49,35.2,1348.25,37.63,1348.21,40.19Z"/><path class="cls-60" d="M1320.41,23.33c.59-4,3.14-7,6.57-5.82a7.86,7.86,0,0,1,5.24-4.68c3.29-1,9.34-.92,14.94,1,3.2,1.1,4.61,3.12.65,2.54a13.64,13.64,0,0,1,4.67,3.54c1,1.15,2.45,4.67-1.09,4.45,1.18,3.36-1.23,6-3.1,7.17-.67.43-1,.38-1-.51-.12-3.17-.63-4.86-3.22-6.06s-8.08-1.21-11.91,1.05-4,9.41-3.75,11.67c.09.77,2.62,4.28,6.09,4.39,1.58,0,4.33-1,6.41-1,1.91.06,2.73,1,4.21,1.08,2.22.07,2.24-3.15,2.69-3.31,1-.35,3,4,2.94,10.53-.08,5.55-4.23,10.62-9.33,10.46-5.9-.2-9.54-2.54-12.18-6-3.19-4.11-3.59-9.7-2.9-14.76a17.51,17.51,0,0,1-3.48-4A20.45,20.45,0,0,1,1320.41,23.33Z"/><path class="cls-63" d="M1321.21,39c.37,3,2.72,6,4.19,5.59,1.19-.33,1.28-2.4,1.26-5.41,0-2.84-.36-5.46-2.14-5.52S1320.77,35.42,1321.21,39Z"/><path class="cls-13" d="M1336.88,45.33c0,.24,1.57.91,3.52,1s3.54-.58,3.54-.92-1.58-.11-3.53-.18S1336.89,45,1336.88,45.33Z"/><path class="cls-13" d="M1348.63,64.84a4.39,4.39,0,0,0-3.66-2.1c-1.32,0,.07.27.58,2.31.74,2.92-2,6-6.71,7.9-3.72-.49-11.12-6-15-10.44a2.07,2.07,0,0,0-3.16,1.05c-1.73,6.89,9.28,13.66,14.31,17l4.15-6.68,6.39,4.89a16.74,16.74,0,0,0,4-8.75A9.75,9.75,0,0,0,1348.63,64.84Z"/><path class="cls-63" d="M1343.38,62.64c-7.27,2.59-12.66-3-14.94-6.61a18,18,0,0,1-3-7.81,27.68,27.68,0,0,1-.08-4.27c.06-1.12.16-2.24.27-3.32l-.33-.26,0-1.91c.37.36.76.7,1.16,1-.53,5.08,0,10.66,3.38,14.67,2.75,3.32,6.45,5.55,12.36,5.55h.34c.08.65.17,1.24.25,1.77A2.05,2.05,0,0,0,1343.38,62.64Z"/><polygon class="cls-61" points="1378.26 340.55 1337.19 340.55 1337.26 333.16 1349.04 333.16 1378.28 338.43 1378.26 340.55"/><polygon class="cls-61" points="1301.31 340.55 1328.32 340.55 1328.32 333.16 1316.54 333.16 1301.31 338.43 1301.31 340.55"/><rect class="cls-60" x="1390.62" y="179.07" width="2.43" height="155.69" transform="translate(2783.68 513.84) rotate(180)"/><path class="cls-64" d="M1393.06,254.75h21.47a5.93,5.93,0,0,1,5.93,5.93V331.6a3.16,3.16,0,0,1-3.16,3.16h-24.23a0,0,0,0,1,0,0v-80A0,0,0,0,1,1393.06,254.75Z"/><circle class="cls-61" cx="1391.84" cy="334.76" r="5.78" transform="translate(170.95 1082.23) rotate(-45)"/><rect class="cls-60" x="1389.77" y="179.07" width="4.14" height="28.29" transform="translate(2783.68 386.43) rotate(180)"/><rect class="cls-60" x="1404.69" y="245.56" width="4.14" height="9.2" transform="translate(2813.51 500.31) rotate(180)"/><polygon class="cls-65" points="1311.37 202.62 1275.51 202.62 1291.37 152.2 1327.23 152.2 1311.37 202.62"/><polygon class="cls-66" points="1311.37 202.62 1317.89 202.62 1360.91 65.93 1354.85 64.48 1311.37 202.62"/><path class="cls-62" d="M1331.08,132.72l2-3.24a19.4,19.4,0,0,0-6.29.68c-1,.42-2.66,1.37-4.29,2.09a5.66,5.66,0,0,1-2.1.49l-46.76,1.83a5,5,0,0,0-4.72,5.77,8.57,8.57,0,0,0,10.35,7s30.13-7.2,39.28-9.16a13.89,13.89,0,0,1,4.89,0c3.6.76,9.91,3,11.94,2.65s13.36-3.34,11.7-6.74C1346.75,133.43,1331.08,132.72,1331.08,132.72Z"/><polygon class="cls-13" points="1336.66 123.64 1348.78 125.01 1343.2 134.09 1331.08 132.72 1336.66 123.64"/></g></g></g></svg>