<svg xmlns="http://www.w3.org/2000/svg" viewBox="0 0 191.12 107.63"><defs><style>.cls-1,.cls-2{fill:#fff;}.cls-1{fill-rule:evenodd;}</style></defs><g id="Layer_2" data-name="Layer 2"><g id="Layer_1-2" data-name="Layer 1"><path class="cls-1" d="M0,19.07H11.38V48.59H27.21V29.43H38.59V78.28H27.21V59.12H11.38V88.64H0V19.07ZM37.42,10.8h3.87A19,19,0,0,1,60.18,29.7h0A18.94,18.94,0,0,1,42,48.57h-.71V59H42A19,19,0,0,1,60.18,77.94h0A18.94,18.94,0,0,1,41.29,96.83H0v10.8H42.13A29.62,29.62,0,0,0,71.67,78.1h0a29.52,29.52,0,0,0-12.8-24.28,29.56,29.56,0,0,0,12.8-24.3h0A29.62,29.62,0,0,0,42.13,0H0V10.8H37.42Z"/><path class="cls-2" d="M82.29,27.66H86V34h3.94V27.66h3.71V43.83H89.94V37H86v6.87H82.29Z"/><path class="cls-2" d="M94.67,27.66h4.21l2.58,6.78L104,27.66h4l-4.8,10.06v6.11H99.48V37.58Z"/><path class="cls-2" d="M109,27.66h3.71V40.89H118v2.94h-9Z"/><path class="cls-2" d="M119.79,27.66h3.71V43.83h-3.71Z"/><path class="cls-2" d="M126.71,27.66H131l4.86,11.79V27.66H139V43.83h-4.27L129.87,32V43.83h-3.16Z"/><path class="cls-2" d="M142.22,27.66h9.21v2.69h-5.5v3.87h5.2v2.71h-5.2V41.1h5.76v2.73h-9.47Z"/><path class="cls-2" d="M82.29,61.91h5a6.57,6.57,0,0,1,4,1,4.3,4.3,0,0,1,.55,5.53,3.55,3.55,0,0,1-2.18,1.24A4,4,0,0,1,92.11,71a4.18,4.18,0,0,1,.81,2.72A3.89,3.89,0,0,1,91.5,77a7.26,7.26,0,0,1-4.41,1.08h-4.8Zm3.55,2.7v3.94h.83a2.75,2.75,0,0,0,1.78-.46A1.79,1.79,0,0,0,89,66.61a1.92,1.92,0,0,0-.55-1.53,2.92,2.92,0,0,0-1.85-.47Zm0,6.44v4.3h.9a3.1,3.1,0,0,0,2-.5,2,2,0,0,0,.61-1.61,2.08,2.08,0,0,0-.61-1.68,3.05,3.05,0,0,0-2-.51Z"/><path class="cls-2" d="M95.23,61.91H99V72.26a5.1,5.1,0,0,0,.49,2.63,2.31,2.31,0,0,0,3.38,0,5,5,0,0,0,.49-2.62V61.91h3.54v9.93a7.19,7.19,0,0,1-1.43,4.92,6.86,6.86,0,0,1-8.78,0,7.21,7.21,0,0,1-1.42-4.92Z"/><path class="cls-2" d="M110,61.91h3.71V78.09H110Z"/><path class="cls-2" d="M116.9,61.91h3.71V75.15h5.3v2.94h-9Z"/><path class="cls-2" d="M127.67,61.91h4.13c2.95,0,5.12.66,6.53,2s2.1,3.35,2.1,6.11a7.85,7.85,0,0,1-2.21,6q-2.21,2.07-6.42,2.07h-4.13Zm3.71,2.7V75.35h.49A4.35,4.35,0,0,0,135.35,74a6,6,0,0,0,1.17-4,6.11,6.11,0,0,0-1.15-4.06,4.38,4.38,0,0,0-3.5-1.32Z"/><path class="cls-2" d="M141.88,61.91h10.77V64.8h-3.52V78.09H145.4V64.8h-3.52Z"/><path class="cls-2" d="M154.67,61.91h9.21v2.7h-5.5v3.87h5.21v2.71h-5.21v4.16h5.76v2.74h-9.47Z"/><path class="cls-2" d="M177.45,62.4l-.18,3a6.12,6.12,0,0,0-1.47-.66,5.81,5.81,0,0,0-1.61-.21A3.74,3.74,0,0,0,171.07,66a6.38,6.38,0,0,0-1.1,4,6.49,6.49,0,0,0,1.13,4.08,3.91,3.91,0,0,0,3.23,1.43,5.17,5.17,0,0,0,1.51-.23,6.76,6.76,0,0,0,1.54-.7l.16,3.12a10.75,10.75,0,0,1-1.81.51,11.49,11.49,0,0,1-2,.17,7.26,7.26,0,0,1-5.61-2.27A8.66,8.66,0,0,1,166.06,70a8.69,8.69,0,0,1,2.06-6.07,7.09,7.09,0,0,1,5.5-2.27,9.45,9.45,0,0,1,1.91.19A10.8,10.8,0,0,1,177.45,62.4Z"/><path class="cls-2" d="M179.76,61.91h3.71v6.36h3.94V61.91h3.71V78.09h-3.71V71.21h-3.94v6.88h-3.71Z"/></g></g></svg>